<mxfile host="app.diagrams.net" modified="2022-04-26T13:15:10.490Z" agent="5.0 (Windows NT 10.0; Win64; x64) AppleWebKit/537.36 (KHTML, like Gecko) Chrome/100.0.4896.127 Safari/537.36" etag="3AEI_Enx5KLU-_aeDRDL" version="17.4.6" type="github">
  <diagram id="xewEE2SjZpMV4tHlsAld" name="Page-1">
    <mxGraphModel dx="3541" dy="2044" grid="1" gridSize="10" guides="1" tooltips="1" connect="1" arrows="1" fold="1" page="1" pageScale="1" pageWidth="827" pageHeight="1169" math="0" shadow="0">
      <root>
        <mxCell id="0" />
        <mxCell id="1" parent="0" />
        <UserObject label="" lucidchartObjectId="x7x1Chy9FIni" id="VwzVGKQmcw6lQUT-82Iy-1">
          <mxCell style="html=1;overflow=block;blockSpacing=1;whiteSpace=wrap;container=1;pointerEvents=0;collapsible=0;recursiveResize=0;fontSize=40;fontColor=#383a3d;fontStyle=1;spacing=0;strokeColor=#383a3d;strokeOpacity=100;fillOpacity=100;rounded=1;absoluteArcSize=1;arcSize=9;fillColor=none;strokeWidth=5.3;" parent="1" vertex="1">
            <mxGeometry x="-750" y="-471" width="1455" height="1176" as="geometry" />
          </mxCell>
        </UserObject>
        <mxCell id="VwzVGKQmcw6lQUT-82Iy-72" value="&lt;span style=&quot;color: rgb(56 , 58 , 61) ; font-size: 40px ; font-weight: 700&quot;&gt;KNAPP&lt;/span&gt;" style="text;html=1;align=center;verticalAlign=middle;resizable=0;points=[];autosize=1;strokeColor=none;fillColor=none;" parent="VwzVGKQmcw6lQUT-82Iy-1" vertex="1">
          <mxGeometry x="20" y="45" width="160" height="30" as="geometry" />
        </mxCell>
        <UserObject label="" lucidchartObjectId="x7x1p7J1mClr" id="VwzVGKQmcw6lQUT-82Iy-11">
          <mxCell style="html=1;jettySize=18;whiteSpace=wrap;fontSize=13;strokeColor=#383a3d;strokeOpacity=100;dashed=1;fixDash=1;dashPattern=6 5;strokeWidth=2.3;rounded=0;startArrow=none;endArrow=block;endFill=1;exitX=0.5;exitY=1.012;exitPerimeter=0;entryX=0.5;entryY=-0.029;entryPerimeter=0;" parent="VwzVGKQmcw6lQUT-82Iy-1" edge="1">
            <mxGeometry width="100" height="100" relative="1" as="geometry">
              <Array as="points" />
              <mxPoint x="132.00000000000023" y="579.3899999999996" as="sourcePoint" />
              <mxPoint x="627" y="330.70000000000005" as="targetPoint" />
            </mxGeometry>
          </mxCell>
        </UserObject>
        <mxCell id="VwzVGKQmcw6lQUT-82Iy-12" value="&amp;lt;&amp;lt;Include&amp;gt;&amp;gt;" style="text;html=1;resizable=0;labelBackgroundColor=default;align=center;verticalAlign=middle;fontStyle=1;fontColor=#383a3d;fontSize=16.8;" parent="VwzVGKQmcw6lQUT-82Iy-11" vertex="1">
          <mxGeometry x="0.3216789903860193" relative="1" as="geometry">
            <mxPoint x="-123" y="56" as="offset" />
          </mxGeometry>
        </mxCell>
        <UserObject label="" lucidchartObjectId="x7x1Q7fdFUaJ" id="VwzVGKQmcw6lQUT-82Iy-23">
          <mxCell style="html=1;jettySize=18;whiteSpace=wrap;fontSize=13;strokeColor=#383a3d;strokeOpacity=100;dashed=1;fixDash=1;dashPattern=6 5;strokeWidth=2.3;rounded=0;startArrow=none;endArrow=block;endFill=1;entryX=0.5;entryY=-0.029;entryPerimeter=0;" parent="VwzVGKQmcw6lQUT-82Iy-1" edge="1">
            <mxGeometry width="100" height="100" relative="1" as="geometry">
              <Array as="points" />
              <mxPoint x="286" y="579.3899999999996" as="sourcePoint" />
              <mxPoint x="627" y="330" as="targetPoint" />
            </mxGeometry>
          </mxCell>
        </UserObject>
        <mxCell id="VwzVGKQmcw6lQUT-82Iy-24" value="&amp;lt;&amp;lt;Include&amp;gt;&amp;gt;" style="text;html=1;resizable=0;labelBackgroundColor=default;align=center;verticalAlign=middle;fontStyle=1;fontColor=#383a3d;fontSize=16.8;" parent="VwzVGKQmcw6lQUT-82Iy-23" vertex="1">
          <mxGeometry x="0.3216789903860193" relative="1" as="geometry">
            <mxPoint x="-21" y="16" as="offset" />
          </mxGeometry>
        </mxCell>
        <UserObject label="" lucidchartObjectId="x7x1y.fIbI79" id="VwzVGKQmcw6lQUT-82Iy-25">
          <mxCell style="html=1;jettySize=18;whiteSpace=wrap;fontSize=13;strokeColor=#383a3d;strokeOpacity=100;dashed=1;fixDash=1;dashPattern=6 5;strokeWidth=2.3;rounded=0;startArrow=none;endArrow=block;endFill=1;exitX=0.5;exitY=1.012;exitPerimeter=0;entryX=0.5;entryY=-0.029;entryPerimeter=0;" parent="VwzVGKQmcw6lQUT-82Iy-1" edge="1">
            <mxGeometry width="100" height="100" relative="1" as="geometry">
              <Array as="points" />
              <mxPoint x="468.5" y="579.3899999999996" as="sourcePoint" />
              <mxPoint x="627" y="330.70000000000005" as="targetPoint" />
            </mxGeometry>
          </mxCell>
        </UserObject>
        <mxCell id="VwzVGKQmcw6lQUT-82Iy-26" value="&amp;lt;&amp;lt;Include&amp;gt;&amp;gt;" style="text;html=1;resizable=0;labelBackgroundColor=default;align=center;verticalAlign=middle;fontStyle=1;fontColor=#383a3d;fontSize=16.8;" parent="VwzVGKQmcw6lQUT-82Iy-25" vertex="1">
          <mxGeometry x="0.3216789903860193" relative="1" as="geometry">
            <mxPoint x="-23" y="66" as="offset" />
          </mxGeometry>
        </mxCell>
        <UserObject label="" lucidchartObjectId="x7x1r4sUqroY" id="VwzVGKQmcw6lQUT-82Iy-28">
          <mxCell style="html=1;jettySize=18;whiteSpace=wrap;fontSize=13;strokeColor=#383a3d;strokeOpacity=100;dashed=1;fixDash=1;dashPattern=6 5;strokeWidth=2.3;rounded=0;startArrow=none;endArrow=block;endFill=1;exitX=0.5;exitY=1.012;exitPerimeter=0;entryX=0.5;entryY=-0.029;entryPerimeter=0;" parent="VwzVGKQmcw6lQUT-82Iy-1" edge="1">
            <mxGeometry width="100" height="100" relative="1" as="geometry">
              <Array as="points" />
              <mxPoint x="638.5" y="581.3899999999999" as="sourcePoint" />
              <mxPoint x="627" y="330.70000000000005" as="targetPoint" />
            </mxGeometry>
          </mxCell>
        </UserObject>
        <mxCell id="VwzVGKQmcw6lQUT-82Iy-29" value="&amp;lt;&amp;lt;Include&amp;gt;&amp;gt;" style="text;html=1;resizable=0;labelBackgroundColor=default;align=center;verticalAlign=middle;fontStyle=1;fontColor=#383a3d;fontSize=16.8;" parent="VwzVGKQmcw6lQUT-82Iy-28" vertex="1">
          <mxGeometry x="0.3216789903860193" relative="1" as="geometry">
            <mxPoint x="8" y="115" as="offset" />
          </mxGeometry>
        </mxCell>
        <UserObject label="" lucidchartObjectId="x7x1MHIUOjXl" id="VwzVGKQmcw6lQUT-82Iy-32">
          <mxCell style="html=1;jettySize=18;whiteSpace=wrap;fontSize=13;strokeColor=#383a3d;strokeOpacity=100;dashed=1;fixDash=1;dashPattern=6 5;strokeWidth=2.3;rounded=0;startArrow=none;endArrow=block;endFill=1;exitX=0.5;exitY=1.012;exitPerimeter=0;entryX=0.5;entryY=-0.029;entryPerimeter=0;" parent="VwzVGKQmcw6lQUT-82Iy-1" edge="1">
            <mxGeometry width="100" height="100" relative="1" as="geometry">
              <Array as="points" />
              <mxPoint x="850" y="581.3899999999999" as="sourcePoint" />
              <mxPoint x="627" y="330.70000000000005" as="targetPoint" />
            </mxGeometry>
          </mxCell>
        </UserObject>
        <mxCell id="VwzVGKQmcw6lQUT-82Iy-33" value="&amp;lt;&amp;lt;Include&amp;gt;&amp;gt;" style="text;html=1;resizable=0;labelBackgroundColor=default;align=center;verticalAlign=middle;fontStyle=1;fontColor=#383a3d;fontSize=16.8;" parent="VwzVGKQmcw6lQUT-82Iy-32" vertex="1">
          <mxGeometry x="0.3216789903860193" relative="1" as="geometry">
            <mxPoint x="48" y="36" as="offset" />
          </mxGeometry>
        </mxCell>
        <UserObject label="" lucidchartObjectId="x7x1FVekg8Gv" id="VwzVGKQmcw6lQUT-82Iy-34">
          <mxCell style="html=1;jettySize=18;whiteSpace=wrap;fontSize=13;strokeColor=#383a3d;strokeOpacity=100;dashed=1;fixDash=1;dashPattern=6 5;strokeWidth=2.3;rounded=0;startArrow=none;endArrow=block;endFill=1;exitX=0.5;exitY=1.012;exitPerimeter=0;entryX=0.5;entryY=-0.029;entryPerimeter=0;" parent="VwzVGKQmcw6lQUT-82Iy-1" edge="1">
            <mxGeometry width="100" height="100" relative="1" as="geometry">
              <Array as="points" />
              <mxPoint x="1054" y="579.3899999999996" as="sourcePoint" />
              <mxPoint x="627" y="330.70000000000005" as="targetPoint" />
            </mxGeometry>
          </mxCell>
        </UserObject>
        <mxCell id="VwzVGKQmcw6lQUT-82Iy-35" value="&amp;lt;&amp;lt;Exclude&amp;gt;&amp;gt;" style="text;html=1;resizable=0;labelBackgroundColor=default;align=center;verticalAlign=middle;fontStyle=1;fontColor=#383a3d;fontSize=16.8;" parent="VwzVGKQmcw6lQUT-82Iy-34" vertex="1">
          <mxGeometry x="0.3216789903860193" relative="1" as="geometry">
            <mxPoint x="148" y="86" as="offset" />
          </mxGeometry>
        </mxCell>
        <UserObject label="" lucidchartObjectId="x7x1h8phvXM." id="VwzVGKQmcw6lQUT-82Iy-37">
          <mxCell style="html=1;jettySize=18;whiteSpace=wrap;fontSize=13;strokeColor=#383a3d;strokeOpacity=100;dashed=1;fixDash=1;dashPattern=6 5;strokeWidth=2.3;rounded=0;startArrow=none;endArrow=block;endFill=1;exitX=0.5;exitY=1.012;exitPerimeter=0;entryX=0.5;entryY=-0.029;entryPerimeter=0;" parent="VwzVGKQmcw6lQUT-82Iy-1" edge="1">
            <mxGeometry width="100" height="100" relative="1" as="geometry">
              <Array as="points" />
              <mxPoint x="1240" y="579.3899999999996" as="sourcePoint" />
              <mxPoint x="627" y="330.70000000000005" as="targetPoint" />
            </mxGeometry>
          </mxCell>
        </UserObject>
        <mxCell id="VwzVGKQmcw6lQUT-82Iy-38" value="&amp;lt;&amp;lt;Include&amp;gt;&amp;gt;" style="text;html=1;resizable=0;labelBackgroundColor=default;align=center;verticalAlign=middle;fontStyle=1;fontColor=#383a3d;fontSize=16.8;" parent="VwzVGKQmcw6lQUT-82Iy-37" vertex="1">
          <mxGeometry x="0.3216789903860193" relative="1" as="geometry">
            <mxPoint x="15" y="-4" as="offset" />
          </mxGeometry>
        </mxCell>
        <UserObject label="" lucidchartObjectId="Kiz1ae.CU_a4" id="VwzVGKQmcw6lQUT-82Iy-64">
          <mxCell style="html=1;jettySize=18;whiteSpace=wrap;fontSize=13;strokeColor=#635dff;strokeOpacity=100;dashed=1;fixDash=1;dashPattern=6 5;strokeWidth=3.8;rounded=0;startArrow=none;endArrow=block;endFill=1;entryX=0.5;entryY=-0.029;entryPerimeter=0;exitX=0.5;exitY=-0.029;exitDx=0;exitDy=0;exitPerimeter=0;" parent="VwzVGKQmcw6lQUT-82Iy-1" edge="1">
            <mxGeometry width="100" height="100" relative="1" as="geometry">
              <Array as="points" />
              <mxPoint x="470" y="943.3900000000003" as="sourcePoint" />
              <mxPoint x="624.5" y="331" as="targetPoint" />
            </mxGeometry>
          </mxCell>
        </UserObject>
        <mxCell id="VwzVGKQmcw6lQUT-82Iy-65" value="&amp;lt;&amp;lt;Include&amp;gt;&amp;gt;" style="text;html=1;resizable=0;labelBackgroundColor=default;align=center;verticalAlign=middle;fontStyle=1;fontColor=#4d0066;fontSize=16.8;" parent="VwzVGKQmcw6lQUT-82Iy-64" vertex="1">
          <mxGeometry x="0.7835898043603065" relative="1" as="geometry">
            <mxPoint x="-108" y="474" as="offset" />
          </mxGeometry>
        </mxCell>
        <UserObject label="KNAPP Use-Case Diagram :: Library Staff View" lucidchartObjectId="vXx15x7TxMz1" id="VwzVGKQmcw6lQUT-82Iy-2">
          <mxCell style="html=1;overflow=block;blockSpacing=1;whiteSpace=wrap;fontSize=35.2;fontColor=#8b412b;fontStyle=1;spacing=3.8;strokeColor=none;fillOpacity=0;fillColor=#ffffff;strokeWidth=0;" parent="1" vertex="1">
            <mxGeometry x="-440" y="-750" width="825" height="176" as="geometry" />
          </mxCell>
        </UserObject>
        <UserObject label="Primary Actors" lucidchartObjectId="x7x12075siuS" id="VwzVGKQmcw6lQUT-82Iy-3">
          <mxCell style="html=1;overflow=block;blockSpacing=1;whiteSpace=wrap;fontSize=38.5;fontColor=#8b412b;fontStyle=1;spacing=0;fillColor=#ffffff;strokeWidth=1.5;strokeColor=none;" parent="1" vertex="1">
            <mxGeometry x="-1125" y="-546" width="337" height="45" as="geometry" />
          </mxCell>
        </UserObject>
        <UserObject label="Login" lucidchartObjectId="x7x1iAqX4r_B" id="VwzVGKQmcw6lQUT-82Iy-4">
          <mxCell style="html=1;overflow=block;blockSpacing=1;whiteSpace=wrap;ellipse;fontSize=30.2;fontColor=#383a3d;fontStyle=1;spacing=3.8;strokeColor=#383a3d;strokeOpacity=100;fillOpacity=100;rounded=1;absoluteArcSize=1;arcSize=9;fillColor=#FFFFFF;strokeWidth=5.3;" parent="1" vertex="1">
            <mxGeometry x="-375" y="-366" width="504" height="225" as="geometry" />
          </mxCell>
        </UserObject>
        <UserObject label="Admin" lucidchartObjectId="x7x1_HqmLVqf" id="VwzVGKQmcw6lQUT-82Iy-5">
          <mxCell style="html=1;overflow=block;blockSpacing=1;shape=umlActor;labelPosition=center;verticalLabelPosition=bottom;verticalAlign=top;whiteSpace=nowrap;fontSize=23.3;fontColor=#383a3d;fontStyle=1;spacing=0;strokeColor=#383a3d;strokeOpacity=100;fillOpacity=100;rounded=1;absoluteArcSize=1;arcSize=9;fillColor=#c4c4c4;strokeWidth=5.3;" parent="1" vertex="1">
            <mxGeometry x="883" y="-426" width="60" height="135" as="geometry" />
          </mxCell>
        </UserObject>
        <UserObject label="Library Users" lucidchartObjectId="x7x1uNKdwwUK" id="VwzVGKQmcw6lQUT-82Iy-6">
          <mxCell style="html=1;overflow=block;blockSpacing=1;shape=umlActor;labelPosition=center;verticalLabelPosition=bottom;verticalAlign=top;whiteSpace=nowrap;fontSize=23.3;fontColor=#383a3d;fontStyle=1;spacing=0;strokeColor=#383a3d;strokeOpacity=100;fillOpacity=100;rounded=1;absoluteArcSize=1;arcSize=9;fillColor=#c4c4c4;strokeWidth=5.3;" parent="1" vertex="1">
            <mxGeometry x="-987" y="-313" width="60" height="135" as="geometry" />
          </mxCell>
        </UserObject>
        <UserObject label="Account Department Users" lucidchartObjectId="x7x1Ydl4FJ6k" id="VwzVGKQmcw6lQUT-82Iy-7">
          <mxCell style="html=1;overflow=block;blockSpacing=1;shape=umlActor;labelPosition=center;verticalLabelPosition=bottom;verticalAlign=top;whiteSpace=nowrap;fontSize=23.3;fontColor=#383a3d;fontStyle=1;spacing=0;strokeColor=#383a3d;strokeOpacity=100;fillOpacity=100;rounded=1;absoluteArcSize=1;arcSize=9;fillColor=#c4c4c4;strokeWidth=5.3;" parent="1" vertex="1">
            <mxGeometry x="883" y="-209" width="60" height="135" as="geometry" />
          </mxCell>
        </UserObject>
        <UserObject label="Users Management" lucidchartObjectId="x7x18n8--uf0" id="VwzVGKQmcw6lQUT-82Iy-8">
          <mxCell style="html=1;overflow=block;blockSpacing=1;shape=umlActor;labelPosition=center;verticalLabelPosition=bottom;verticalAlign=top;whiteSpace=nowrap;fontSize=23.3;fontColor=#383a3d;fontStyle=1;spacing=0;strokeColor=#383a3d;strokeOpacity=100;fillOpacity=100;rounded=1;absoluteArcSize=1;arcSize=9;fillColor=#c4c4c4;strokeWidth=5.3;" parent="1" vertex="1">
            <mxGeometry x="883" y="69" width="60" height="135" as="geometry" />
          </mxCell>
        </UserObject>
        <UserObject label="Bus Management Users" lucidchartObjectId="x7x1-DI6nvDn" id="VwzVGKQmcw6lQUT-82Iy-9">
          <mxCell style="html=1;overflow=block;blockSpacing=1;shape=umlActor;labelPosition=center;verticalLabelPosition=bottom;verticalAlign=top;whiteSpace=nowrap;fontSize=23.3;fontColor=#383a3d;fontStyle=1;spacing=0;strokeColor=#383a3d;strokeOpacity=100;fillOpacity=100;rounded=1;absoluteArcSize=1;arcSize=9;fillColor=#c4c4c4;strokeWidth=5.3;" parent="1" vertex="1">
            <mxGeometry x="883" y="525" width="60" height="135" as="geometry" />
          </mxCell>
        </UserObject>
        <UserObject label="Notices" lucidchartObjectId="x7x1S8WUbyTx" id="VwzVGKQmcw6lQUT-82Iy-10">
          <mxCell style="html=1;overflow=block;blockSpacing=1;whiteSpace=wrap;ellipse;fontSize=20.2;fontColor=#383a3d;fontStyle=1;spacing=3.8;strokeColor=#383a3d;strokeOpacity=100;fillOpacity=100;rounded=1;absoluteArcSize=1;arcSize=9;fillColor=#FFFFFF;strokeWidth=5.3;" parent="1" vertex="1">
            <mxGeometry x="-675" y="113" width="114" height="90" as="geometry" />
          </mxCell>
        </UserObject>
        <UserObject label="" lucidchartObjectId="x7x1fGpGP1oz" id="VwzVGKQmcw6lQUT-82Iy-13">
          <mxCell style="html=1;jettySize=18;whiteSpace=wrap;fontSize=13;strokeColor=#E45E2D;strokeWidth=3;rounded=0;startArrow=none;endArrow=none;exitX=0.456;exitY=0.436;exitPerimeter=0;entryX=1.005;entryY=0.5;entryPerimeter=0;" parent="1" source="VwzVGKQmcw6lQUT-82Iy-5" target="VwzVGKQmcw6lQUT-82Iy-4" edge="1">
            <mxGeometry width="100" height="100" relative="1" as="geometry">
              <Array as="points" />
            </mxGeometry>
          </mxCell>
        </UserObject>
        <UserObject label="" lucidchartObjectId="x7x1K7baDE~P" id="VwzVGKQmcw6lQUT-82Iy-14">
          <mxCell style="html=1;jettySize=18;whiteSpace=wrap;fontSize=13;strokeColor=#E45E2D;strokeWidth=3;rounded=0;startArrow=none;endArrow=none;exitX=0.456;exitY=0.436;exitPerimeter=0;entryX=-0.005;entryY=0.5;entryPerimeter=0;" parent="1" source="VwzVGKQmcw6lQUT-82Iy-6" target="VwzVGKQmcw6lQUT-82Iy-4" edge="1">
            <mxGeometry width="100" height="100" relative="1" as="geometry">
              <Array as="points" />
            </mxGeometry>
          </mxCell>
        </UserObject>
        <UserObject label="" lucidchartObjectId="x7x1Obs.gZJB" id="VwzVGKQmcw6lQUT-82Iy-15">
          <mxCell style="html=1;jettySize=18;whiteSpace=wrap;fontSize=13;strokeColor=#E45E2D;strokeWidth=3;rounded=0;startArrow=none;endArrow=none;exitX=0.458;exitY=0.5;exitPerimeter=0;entryX=1.005;entryY=0.5;entryPerimeter=0;" parent="1" source="VwzVGKQmcw6lQUT-82Iy-7" target="VwzVGKQmcw6lQUT-82Iy-4" edge="1">
            <mxGeometry width="100" height="100" relative="1" as="geometry">
              <Array as="points" />
            </mxGeometry>
          </mxCell>
        </UserObject>
        <UserObject label="" lucidchartObjectId="x7x1mGySMqln" id="VwzVGKQmcw6lQUT-82Iy-16">
          <mxCell style="html=1;jettySize=18;whiteSpace=wrap;fontSize=13;strokeColor=#e45e2d;strokeOpacity=100;strokeWidth=3;rounded=0;startArrow=none;endArrow=none;exitX=0.458;exitY=0.5;exitPerimeter=0;entryX=1.005;entryY=0.5;entryPerimeter=0;" parent="1" source="VwzVGKQmcw6lQUT-82Iy-8" target="VwzVGKQmcw6lQUT-82Iy-4" edge="1">
            <mxGeometry width="100" height="100" relative="1" as="geometry">
              <Array as="points" />
            </mxGeometry>
          </mxCell>
        </UserObject>
        <UserObject label="Login Account" lucidchartObjectId="x7x1C5_HYQZ." id="VwzVGKQmcw6lQUT-82Iy-17">
          <mxCell style="html=1;overflow=block;blockSpacing=1;whiteSpace=wrap;ellipse;fontSize=13;spacing=0;strokeColor=#383a3d;strokeOpacity=100;fillOpacity=100;rounded=1;absoluteArcSize=1;arcSize=9;fillColor=#FFFFFF;strokeWidth=1.5;" parent="1" vertex="1">
            <mxGeometry x="315" y="-441" width="315" height="120" as="geometry" />
          </mxCell>
        </UserObject>
        <UserObject label="" lucidchartObjectId="x7x1Z6t.XipK" id="VwzVGKQmcw6lQUT-82Iy-18">
          <mxCell style="html=1;jettySize=18;whiteSpace=wrap;fontSize=13;strokeColor=#383a3d;strokeOpacity=100;dashed=1;fixDash=1;strokeWidth=2.3;rounded=0;startArrow=none;endArrow=block;endFill=1;exitX=-0.002;exitY=0.5;exitPerimeter=0;entryX=1.005;entryY=0.5;entryPerimeter=0;" parent="1" source="VwzVGKQmcw6lQUT-82Iy-17" target="VwzVGKQmcw6lQUT-82Iy-4" edge="1">
            <mxGeometry width="100" height="100" relative="1" as="geometry">
              <Array as="points" />
            </mxGeometry>
          </mxCell>
        </UserObject>
        <mxCell id="VwzVGKQmcw6lQUT-82Iy-19" value="&amp;lt;&amp;lt;Exclude&amp;gt;&amp;gt;" style="text;html=1;resizable=0;labelBackgroundColor=default;align=center;verticalAlign=middle;fontStyle=1;fontColor=#383a3d;fontSize=16.8;" parent="VwzVGKQmcw6lQUT-82Iy-18" vertex="1">
          <mxGeometry relative="1" as="geometry" />
        </mxCell>
        <UserObject label="Secondary Actors" lucidchartObjectId="x7x1Xo7q~Zmn" id="VwzVGKQmcw6lQUT-82Iy-20">
          <mxCell style="html=1;overflow=block;blockSpacing=1;whiteSpace=wrap;fontSize=38.5;fontColor=#8b412b;fontStyle=1;spacing=0;fillColor=#ffffff;strokeWidth=1.5;strokeColor=none;" parent="1" vertex="1">
            <mxGeometry x="793" y="-546" width="337" height="45" as="geometry" />
          </mxCell>
        </UserObject>
        <UserObject label="KNAPP Chat" lucidchartObjectId="x7x1NZg9x6Oo" id="VwzVGKQmcw6lQUT-82Iy-21">
          <mxCell style="html=1;overflow=block;blockSpacing=1;whiteSpace=wrap;ellipse;fontSize=20.2;fontColor=#383a3d;fontStyle=1;spacing=3.8;strokeColor=#383a3d;strokeOpacity=100;fillOpacity=100;rounded=1;absoluteArcSize=1;arcSize=9;fillColor=#FFFFFF;strokeWidth=5.3;" parent="1" vertex="1">
            <mxGeometry x="-540" y="113" width="152" height="90" as="geometry" />
          </mxCell>
        </UserObject>
        <UserObject label="KNPP Mail" lucidchartObjectId="x7x12-eEuShf" id="VwzVGKQmcw6lQUT-82Iy-22">
          <mxCell style="html=1;overflow=block;blockSpacing=1;whiteSpace=wrap;ellipse;fontSize=20.2;fontColor=#383a3d;fontStyle=1;spacing=3.8;strokeColor=#383a3d;strokeOpacity=100;fillOpacity=100;rounded=1;absoluteArcSize=1;arcSize=9;fillColor=#FFFFFF;strokeWidth=5.3;" parent="1" vertex="1">
            <mxGeometry x="-345" y="113" width="127" height="90" as="geometry" />
          </mxCell>
        </UserObject>
        <UserObject label="Account" lucidchartObjectId="x7x1Fjdpis9C" id="VwzVGKQmcw6lQUT-82Iy-27">
          <mxCell style="html=1;overflow=block;blockSpacing=1;whiteSpace=wrap;ellipse;fontSize=20.2;fontColor=#383a3d;fontStyle=1;spacing=3.8;strokeColor=#383a3d;strokeOpacity=100;fillOpacity=100;rounded=1;absoluteArcSize=1;arcSize=9;fillColor=#FFFFFF;strokeWidth=5.3;" parent="1" vertex="1">
            <mxGeometry x="-175" y="115" width="127" height="90" as="geometry" />
          </mxCell>
        </UserObject>
        <UserObject label="Management" lucidchartObjectId="x7x1Wf.mzbwM" id="VwzVGKQmcw6lQUT-82Iy-30">
          <mxCell style="html=1;overflow=block;blockSpacing=1;whiteSpace=wrap;ellipse;fontSize=20.2;fontColor=#383a3d;fontStyle=1;spacing=3.8;strokeColor=#383a3d;strokeOpacity=100;fillOpacity=100;rounded=1;absoluteArcSize=1;arcSize=9;fillColor=#FFFFFF;strokeWidth=5.3;" parent="1" vertex="1">
            <mxGeometry x="15" y="115" width="170" height="90" as="geometry" />
          </mxCell>
        </UserObject>
        <UserObject label="Registration" lucidchartObjectId="x7x1xBG7ul0z" id="VwzVGKQmcw6lQUT-82Iy-31">
          <mxCell style="html=1;overflow=block;blockSpacing=1;whiteSpace=wrap;ellipse;fontSize=20.2;fontColor=#383a3d;fontStyle=1;spacing=3.8;strokeColor=#383a3d;strokeOpacity=100;fillOpacity=100;rounded=1;absoluteArcSize=1;arcSize=9;fillColor=#FFFFFF;strokeWidth=5.3;" parent="1" vertex="1">
            <mxGeometry x="233" y="113" width="142" height="90" as="geometry" />
          </mxCell>
        </UserObject>
        <UserObject label="Library" lucidchartObjectId="x7x1jxlOBZO~" id="VwzVGKQmcw6lQUT-82Iy-36">
          <mxCell style="html=1;overflow=block;blockSpacing=1;whiteSpace=wrap;ellipse;fontSize=20.2;fontColor=#383a3d;fontStyle=1;spacing=3.8;strokeColor=#383a3d;strokeOpacity=100;fillOpacity=100;rounded=1;absoluteArcSize=1;arcSize=9;fillColor=#FFFFFF;strokeWidth=5.3;" parent="1" vertex="1">
            <mxGeometry x="405" y="113" width="170" height="90" as="geometry" />
          </mxCell>
        </UserObject>
        <UserObject label="" lucidchartObjectId="x7x1p0rp2wFp" id="VwzVGKQmcw6lQUT-82Iy-39">
          <mxCell style="html=1;jettySize=18;whiteSpace=wrap;fontSize=13;strokeColor=#E45E2D;strokeWidth=3;rounded=0;startArrow=none;endArrow=none;exitX=0.547;exitY=0.5;exitPerimeter=0;" parent="1" source="VwzVGKQmcw6lQUT-82Iy-9" edge="1">
            <mxGeometry width="100" height="100" relative="1" as="geometry">
              <Array as="points" />
              <mxPoint x="140" y="-250" as="targetPoint" />
            </mxGeometry>
          </mxCell>
        </UserObject>
        <UserObject label="" lucidchartObjectId="x7x11Uh~Zo11" id="VwzVGKQmcw6lQUT-82Iy-40">
          <mxCell style="html=1;jettySize=18;whiteSpace=wrap;fontSize=13;strokeColor=#E45E2D;strokeWidth=1.5;rounded=0;startArrow=none;endArrow=none;exitX=0.456;exitY=0.436;exitPerimeter=0;" parent="1" source="VwzVGKQmcw6lQUT-82Iy-5" edge="1">
            <mxGeometry width="100" height="100" relative="1" as="geometry">
              <Array as="points" />
              <mxPoint x="-618" y="110" as="targetPoint" />
            </mxGeometry>
          </mxCell>
        </UserObject>
        <UserObject label="" lucidchartObjectId="x7x1Ttgm5NQB" id="VwzVGKQmcw6lQUT-82Iy-41">
          <mxCell style="html=1;jettySize=18;whiteSpace=wrap;fontSize=13;strokeColor=#E45E2D;strokeWidth=1.5;rounded=0;startArrow=none;endArrow=none;exitX=0.456;exitY=0.436;exitPerimeter=0;entryX=0.5;entryY=-0.029;entryPerimeter=0;" parent="1" source="VwzVGKQmcw6lQUT-82Iy-5" target="VwzVGKQmcw6lQUT-82Iy-21" edge="1">
            <mxGeometry width="100" height="100" relative="1" as="geometry">
              <Array as="points" />
            </mxGeometry>
          </mxCell>
        </UserObject>
        <UserObject label="" lucidchartObjectId="x7x1pRiwSOpe" id="VwzVGKQmcw6lQUT-82Iy-42">
          <mxCell style="html=1;jettySize=18;whiteSpace=wrap;fontSize=13;strokeColor=#E45E2D;strokeWidth=1.5;rounded=0;startArrow=none;endArrow=none;exitX=0.456;exitY=0.436;exitPerimeter=0;entryX=0.5;entryY=-0.029;entryPerimeter=0;" parent="1" source="VwzVGKQmcw6lQUT-82Iy-5" target="VwzVGKQmcw6lQUT-82Iy-22" edge="1">
            <mxGeometry width="100" height="100" relative="1" as="geometry">
              <Array as="points" />
            </mxGeometry>
          </mxCell>
        </UserObject>
        <UserObject label="" lucidchartObjectId="x7x1hf0vWmLV" id="VwzVGKQmcw6lQUT-82Iy-43">
          <mxCell style="html=1;jettySize=18;whiteSpace=wrap;fontSize=13;strokeColor=#E45E2D;strokeWidth=1.5;rounded=0;startArrow=none;endArrow=none;exitX=0.456;exitY=0.436;exitPerimeter=0;entryX=0.5;entryY=-0.029;entryPerimeter=0;" parent="1" source="VwzVGKQmcw6lQUT-82Iy-5" target="VwzVGKQmcw6lQUT-82Iy-27" edge="1">
            <mxGeometry width="100" height="100" relative="1" as="geometry">
              <Array as="points" />
            </mxGeometry>
          </mxCell>
        </UserObject>
        <UserObject label="" lucidchartObjectId="x7x1I9hO3IS2" id="VwzVGKQmcw6lQUT-82Iy-44">
          <mxCell style="html=1;jettySize=18;whiteSpace=wrap;fontSize=13;strokeColor=#E45E2D;strokeWidth=1.5;rounded=0;startArrow=none;endArrow=none;exitX=0.456;exitY=0.436;exitPerimeter=0;" parent="1" source="VwzVGKQmcw6lQUT-82Iy-5" edge="1">
            <mxGeometry width="100" height="100" relative="1" as="geometry">
              <Array as="points" />
              <mxPoint x="100" y="113" as="targetPoint" />
            </mxGeometry>
          </mxCell>
        </UserObject>
        <UserObject label="" lucidchartObjectId="x7x1AuOUSJmu" id="VwzVGKQmcw6lQUT-82Iy-45">
          <mxCell style="html=1;jettySize=18;whiteSpace=wrap;fontSize=13;strokeColor=#E45E2D;strokeWidth=1.5;rounded=0;startArrow=none;endArrow=none;exitX=0.456;exitY=0.436;exitPerimeter=0;entryX=0.5;entryY=-0.029;entryPerimeter=0;" parent="1" source="VwzVGKQmcw6lQUT-82Iy-5" target="VwzVGKQmcw6lQUT-82Iy-31" edge="1">
            <mxGeometry width="100" height="100" relative="1" as="geometry">
              <Array as="points" />
            </mxGeometry>
          </mxCell>
        </UserObject>
        <UserObject label="" lucidchartObjectId="x7x1aC7PyOAe" id="VwzVGKQmcw6lQUT-82Iy-46">
          <mxCell style="html=1;jettySize=18;whiteSpace=wrap;fontSize=13;strokeColor=#E45E2D;strokeWidth=1.5;rounded=0;startArrow=none;endArrow=none;exitX=0.456;exitY=0.436;exitPerimeter=0;entryX=0.5;entryY=-0.029;entryPerimeter=0;" parent="1" source="VwzVGKQmcw6lQUT-82Iy-5" target="VwzVGKQmcw6lQUT-82Iy-36" edge="1">
            <mxGeometry width="100" height="100" relative="1" as="geometry">
              <Array as="points" />
            </mxGeometry>
          </mxCell>
        </UserObject>
        <UserObject label="" lucidchartObjectId="x7x1yAxehFLN" id="VwzVGKQmcw6lQUT-82Iy-47">
          <mxCell style="html=1;jettySize=18;whiteSpace=wrap;fontSize=13;strokeColor=#383a3d;strokeOpacity=100;strokeWidth=1.5;rounded=0;startArrow=none;endArrow=none;exitX=0.456;exitY=0.436;exitPerimeter=0;entryX=0.5;entryY=-0.029;entryPerimeter=0;" parent="1" source="VwzVGKQmcw6lQUT-82Iy-7" target="VwzVGKQmcw6lQUT-82Iy-10" edge="1">
            <mxGeometry width="100" height="100" relative="1" as="geometry">
              <Array as="points" />
            </mxGeometry>
          </mxCell>
        </UserObject>
        <UserObject label="" lucidchartObjectId="x7x1XuKt_mEL" id="VwzVGKQmcw6lQUT-82Iy-48">
          <mxCell style="html=1;jettySize=18;whiteSpace=wrap;fontSize=13;strokeColor=#383a3d;strokeOpacity=100;strokeWidth=1.5;rounded=0;startArrow=none;endArrow=none;exitX=0.456;exitY=0.436;exitPerimeter=0;entryX=0.5;entryY=-0.029;entryPerimeter=0;" parent="1" source="VwzVGKQmcw6lQUT-82Iy-7" target="VwzVGKQmcw6lQUT-82Iy-21" edge="1">
            <mxGeometry width="100" height="100" relative="1" as="geometry">
              <Array as="points" />
            </mxGeometry>
          </mxCell>
        </UserObject>
        <UserObject label="" lucidchartObjectId="x7x1V5kiM0vv" id="VwzVGKQmcw6lQUT-82Iy-49">
          <mxCell style="html=1;jettySize=18;whiteSpace=wrap;fontSize=13;strokeColor=#383a3d;strokeOpacity=100;strokeWidth=1.5;rounded=0;startArrow=none;endArrow=none;exitX=0.456;exitY=0.436;exitPerimeter=0;entryX=0.5;entryY=-0.029;entryPerimeter=0;" parent="1" source="VwzVGKQmcw6lQUT-82Iy-7" target="VwzVGKQmcw6lQUT-82Iy-22" edge="1">
            <mxGeometry width="100" height="100" relative="1" as="geometry">
              <Array as="points" />
            </mxGeometry>
          </mxCell>
        </UserObject>
        <UserObject label="" lucidchartObjectId="x7x1tYbahBxI" id="VwzVGKQmcw6lQUT-82Iy-50">
          <mxCell style="html=1;jettySize=18;whiteSpace=wrap;fontSize=13;strokeColor=#383a3d;strokeOpacity=100;strokeWidth=1.5;rounded=0;startArrow=none;endArrow=none;exitX=0.456;exitY=0.436;exitPerimeter=0;entryX=0.5;entryY=-0.029;entryPerimeter=0;" parent="1" source="VwzVGKQmcw6lQUT-82Iy-7" target="VwzVGKQmcw6lQUT-82Iy-27" edge="1">
            <mxGeometry width="100" height="100" relative="1" as="geometry">
              <Array as="points" />
            </mxGeometry>
          </mxCell>
        </UserObject>
        <UserObject label="" lucidchartObjectId="x7x1J1kZBSR_" id="VwzVGKQmcw6lQUT-82Iy-51">
          <mxCell style="html=1;jettySize=18;whiteSpace=wrap;fontSize=13;strokeOpacity=100;strokeWidth=1.5;rounded=0;startArrow=none;endArrow=none;exitX=0.456;exitY=0.436;exitPerimeter=0;" parent="1" source="VwzVGKQmcw6lQUT-82Iy-8" edge="1">
            <mxGeometry width="100" height="100" relative="1" as="geometry">
              <Array as="points" />
              <mxPoint x="-618" y="110" as="targetPoint" />
            </mxGeometry>
          </mxCell>
        </UserObject>
        <UserObject label="" lucidchartObjectId="x7x1KZIRFGUu" id="VwzVGKQmcw6lQUT-82Iy-52">
          <mxCell style="html=1;jettySize=18;whiteSpace=wrap;fontSize=13;strokeOpacity=100;strokeWidth=1.5;rounded=0;startArrow=none;endArrow=none;exitX=0.456;exitY=0.436;exitPerimeter=0;entryX=1.017;entryY=0.5;entryPerimeter=0;" parent="1" source="VwzVGKQmcw6lQUT-82Iy-8" target="VwzVGKQmcw6lQUT-82Iy-21" edge="1">
            <mxGeometry width="100" height="100" relative="1" as="geometry">
              <Array as="points" />
            </mxGeometry>
          </mxCell>
        </UserObject>
        <UserObject label="" lucidchartObjectId="x7x1NoQSsPen" id="VwzVGKQmcw6lQUT-82Iy-53">
          <mxCell style="html=1;jettySize=18;whiteSpace=wrap;fontSize=13;strokeOpacity=100;strokeWidth=1.5;rounded=0;startArrow=none;endArrow=none;exitX=0.456;exitY=0.436;exitPerimeter=0;entryX=1.021;entryY=0.5;entryPerimeter=0;" parent="1" source="VwzVGKQmcw6lQUT-82Iy-8" target="VwzVGKQmcw6lQUT-82Iy-22" edge="1">
            <mxGeometry width="100" height="100" relative="1" as="geometry">
              <Array as="points" />
            </mxGeometry>
          </mxCell>
        </UserObject>
        <UserObject label="" lucidchartObjectId="x7x1HJTwDcFr" id="VwzVGKQmcw6lQUT-82Iy-54">
          <mxCell style="html=1;jettySize=18;whiteSpace=wrap;fontSize=13;strokeOpacity=100;strokeWidth=1.5;rounded=0;startArrow=none;endArrow=none;exitX=0.456;exitY=0.436;exitPerimeter=0;entryX=1.015;entryY=0.5;entryPerimeter=0;" parent="1" source="VwzVGKQmcw6lQUT-82Iy-8" target="VwzVGKQmcw6lQUT-82Iy-30" edge="1">
            <mxGeometry width="100" height="100" relative="1" as="geometry">
              <Array as="points" />
            </mxGeometry>
          </mxCell>
        </UserObject>
        <UserObject label="" lucidchartObjectId="x7x1I8VW~JF8" id="VwzVGKQmcw6lQUT-82Iy-55">
          <mxCell style="html=1;jettySize=18;whiteSpace=wrap;fontSize=13;strokeColor=#ba23f6;strokeOpacity=100;strokeWidth=1.5;rounded=0;startArrow=none;endArrow=none;exitX=0.456;exitY=0.436;exitPerimeter=0;entryX=0.5;entryY=1.029;entryPerimeter=0;" parent="1" source="VwzVGKQmcw6lQUT-82Iy-9" target="VwzVGKQmcw6lQUT-82Iy-10" edge="1">
            <mxGeometry width="100" height="100" relative="1" as="geometry">
              <Array as="points" />
            </mxGeometry>
          </mxCell>
        </UserObject>
        <UserObject label="" lucidchartObjectId="x7x16AdeIg2u" id="VwzVGKQmcw6lQUT-82Iy-56">
          <mxCell style="html=1;jettySize=18;whiteSpace=wrap;fontSize=13;strokeColor=#ba23f6;strokeOpacity=100;strokeWidth=1.5;rounded=0;startArrow=none;endArrow=none;exitX=0.456;exitY=0.436;exitPerimeter=0;entryX=0.5;entryY=1.029;entryPerimeter=0;" parent="1" source="VwzVGKQmcw6lQUT-82Iy-9" target="VwzVGKQmcw6lQUT-82Iy-21" edge="1">
            <mxGeometry width="100" height="100" relative="1" as="geometry">
              <Array as="points" />
            </mxGeometry>
          </mxCell>
        </UserObject>
        <UserObject label="" lucidchartObjectId="x7x1LKJzO2iE" id="VwzVGKQmcw6lQUT-82Iy-57">
          <mxCell style="html=1;jettySize=18;whiteSpace=wrap;fontSize=13;strokeColor=#ba23f6;strokeOpacity=100;strokeWidth=1.5;rounded=0;startArrow=none;endArrow=none;exitX=0.456;exitY=0.436;exitPerimeter=0;entryX=0.5;entryY=1.029;entryPerimeter=0;" parent="1" source="VwzVGKQmcw6lQUT-82Iy-9" target="VwzVGKQmcw6lQUT-82Iy-22" edge="1">
            <mxGeometry width="100" height="100" relative="1" as="geometry">
              <Array as="points" />
            </mxGeometry>
          </mxCell>
        </UserObject>
        <UserObject label="" lucidchartObjectId="x7x1shlD4EyQ" id="VwzVGKQmcw6lQUT-82Iy-58">
          <mxCell style="html=1;jettySize=18;whiteSpace=wrap;fontSize=13;strokeColor=#ba23f6;strokeOpacity=100;strokeWidth=1.5;rounded=0;startArrow=none;endArrow=none;exitX=0.456;exitY=0.436;exitPerimeter=0;entryX=0.5;entryY=1.029;entryPerimeter=0;" parent="1" source="VwzVGKQmcw6lQUT-82Iy-9" target="VwzVGKQmcw6lQUT-82Iy-31" edge="1">
            <mxGeometry width="100" height="100" relative="1" as="geometry">
              <Array as="points" />
            </mxGeometry>
          </mxCell>
        </UserObject>
        <UserObject label="" lucidchartObjectId="x7x1QsHS9aKa" id="VwzVGKQmcw6lQUT-82Iy-59">
          <mxCell style="html=1;jettySize=18;whiteSpace=wrap;fontSize=13;strokeOpacity=100;strokeWidth=1.5;rounded=0;startArrow=none;endArrow=none;exitX=0.456;exitY=0.436;exitPerimeter=0;entryX=0.5;entryY=1.029;entryPerimeter=0;" parent="1" source="VwzVGKQmcw6lQUT-82Iy-8" target="VwzVGKQmcw6lQUT-82Iy-31" edge="1">
            <mxGeometry width="100" height="100" relative="1" as="geometry">
              <Array as="points" />
            </mxGeometry>
          </mxCell>
        </UserObject>
        <UserObject label="All Books" lucidchartObjectId="Kiz1U7IZClD~" id="VwzVGKQmcw6lQUT-82Iy-60">
          <mxCell style="html=1;overflow=block;blockSpacing=1;whiteSpace=wrap;ellipse;fontSize=13;spacing=3.8;strokeColor=#383a3d;strokeOpacity=100;fillOpacity=100;rounded=1;absoluteArcSize=1;arcSize=9;fillColor=#FFFFFF;strokeWidth=5.3;" parent="1" vertex="1">
            <mxGeometry x="-600" y="414" width="165" height="90" as="geometry" />
          </mxCell>
        </UserObject>
        <UserObject label="Available Books" lucidchartObjectId="Kiz1t_VDiqng" id="VwzVGKQmcw6lQUT-82Iy-61">
          <mxCell style="html=1;overflow=block;blockSpacing=1;whiteSpace=wrap;ellipse;fontSize=13;spacing=3.8;strokeColor=#383a3d;strokeOpacity=100;fillOpacity=100;rounded=1;absoluteArcSize=1;arcSize=9;fillColor=#FFFFFF;strokeWidth=5.3;" parent="1" vertex="1">
            <mxGeometry x="-357" y="474" width="165" height="90" as="geometry" />
          </mxCell>
        </UserObject>
        <UserObject label="Issued Books" lucidchartObjectId="Kiz1OYoyHFw1" id="VwzVGKQmcw6lQUT-82Iy-62">
          <mxCell style="html=1;overflow=block;blockSpacing=1;whiteSpace=wrap;ellipse;fontSize=13;spacing=3.8;strokeColor=#383a3d;strokeOpacity=100;fillOpacity=100;rounded=1;absoluteArcSize=1;arcSize=9;fillColor=#FFFFFF;strokeWidth=5.3;" parent="1" vertex="1">
            <mxGeometry x="-94" y="489" width="150" height="90" as="geometry" />
          </mxCell>
        </UserObject>
        <UserObject label="Add New Books" lucidchartObjectId="Kiz1aE_SI0XL" id="VwzVGKQmcw6lQUT-82Iy-63">
          <mxCell style="html=1;overflow=block;blockSpacing=1;whiteSpace=wrap;ellipse;fontSize=13;spacing=3.8;strokeColor=#383a3d;strokeOpacity=100;fillOpacity=100;rounded=1;absoluteArcSize=1;arcSize=9;fillColor=#FFFFFF;strokeWidth=5.3;" parent="1" vertex="1">
            <mxGeometry x="188" y="465" width="175" height="90" as="geometry" />
          </mxCell>
        </UserObject>
        <UserObject label="" lucidchartObjectId="Kiz1uvQvYVzo" id="VwzVGKQmcw6lQUT-82Iy-66">
          <mxCell style="html=1;jettySize=18;whiteSpace=wrap;fontSize=13;strokeColor=#635dff;strokeOpacity=100;dashed=1;fixDash=1;dashPattern=6 5;strokeWidth=3.8;rounded=0;startArrow=none;endArrow=block;endFill=1;entryX=0.5;entryY=-0.029;entryPerimeter=0;exitX=0.5;exitY=-0.029;exitDx=0;exitDy=0;exitPerimeter=0;" parent="1" edge="1" source="VwzVGKQmcw6lQUT-82Iy-62">
            <mxGeometry width="100" height="100" relative="1" as="geometry">
              <Array as="points" />
              <mxPoint x="-120" y="-141" as="targetPoint" />
            </mxGeometry>
          </mxCell>
        </UserObject>
        <mxCell id="VwzVGKQmcw6lQUT-82Iy-67" value="&amp;lt;&amp;lt;Include&amp;gt;&amp;gt;" style="text;html=1;resizable=0;labelBackgroundColor=default;align=center;verticalAlign=middle;fontStyle=1;fontColor=#4d0066;fontSize=16.8;" parent="VwzVGKQmcw6lQUT-82Iy-66" vertex="1">
          <mxGeometry x="0.6689824304268777" relative="1" as="geometry">
            <mxPoint x="76" y="437" as="offset" />
          </mxGeometry>
        </mxCell>
        <UserObject label="" lucidchartObjectId="Kiz1lfWX871n" id="VwzVGKQmcw6lQUT-82Iy-68">
          <mxCell style="html=1;jettySize=18;whiteSpace=wrap;fontSize=13;strokeColor=#635dff;strokeOpacity=100;dashed=1;fixDash=1;dashPattern=6 5;strokeWidth=3.8;rounded=0;startArrow=none;endArrow=block;endFill=1;exitX=0.5;exitY=-0.029;exitPerimeter=0;entryX=0.5;entryY=1.012;entryPerimeter=0;exitDx=0;exitDy=0;entryDx=0;entryDy=0;" parent="1" source="VwzVGKQmcw6lQUT-82Iy-63" target="VwzVGKQmcw6lQUT-82Iy-4" edge="1">
            <mxGeometry width="100" height="100" relative="1" as="geometry">
              <Array as="points" />
            </mxGeometry>
          </mxCell>
        </UserObject>
        <mxCell id="VwzVGKQmcw6lQUT-82Iy-69" value="&amp;lt;&amp;lt;Include&amp;gt;&amp;gt;" style="text;html=1;resizable=0;labelBackgroundColor=default;align=center;verticalAlign=middle;fontStyle=1;fontColor=#4d0066;fontSize=16.8;" parent="VwzVGKQmcw6lQUT-82Iy-68" vertex="1">
          <mxGeometry x="0.48434114901474135" relative="1" as="geometry">
            <mxPoint x="170" y="273" as="offset" />
          </mxGeometry>
        </mxCell>
        <mxCell id="RshN5eTmCLDf46brc46--3" style="edgeStyle=orthogonalEdgeStyle;rounded=0;orthogonalLoop=1;jettySize=auto;html=1;exitX=0;exitY=0;exitDx=0;exitDy=0;" edge="1" parent="VwzVGKQmcw6lQUT-82Iy-68" source="VwzVGKQmcw6lQUT-82Iy-69" target="VwzVGKQmcw6lQUT-82Iy-1">
          <mxGeometry relative="1" as="geometry" />
        </mxCell>
        <UserObject label="" lucidchartObjectId=".iz1onsd2OHV" id="VwzVGKQmcw6lQUT-82Iy-70">
          <mxCell style="html=1;jettySize=18;whiteSpace=wrap;fontSize=13;strokeColor=#635dff;strokeOpacity=100;dashed=1;fixDash=1;dashPattern=6 5;strokeWidth=3.8;rounded=0;startArrow=none;endArrow=block;endFill=1;exitX=0.5;exitY=-0.029;exitPerimeter=0;entryX=0.5;entryY=1.012;entryPerimeter=0;exitDx=0;exitDy=0;entryDx=0;entryDy=0;" parent="1" source="VwzVGKQmcw6lQUT-82Iy-60" target="VwzVGKQmcw6lQUT-82Iy-4" edge="1">
            <mxGeometry width="100" height="100" relative="1" as="geometry">
              <Array as="points" />
            </mxGeometry>
          </mxCell>
        </UserObject>
        <mxCell id="VwzVGKQmcw6lQUT-82Iy-71" value="&amp;lt;&amp;lt;Include&amp;gt;&amp;gt;" style="text;html=1;resizable=0;labelBackgroundColor=default;align=center;verticalAlign=middle;fontStyle=1;fontColor=#4d0066;fontSize=16.8;" parent="VwzVGKQmcw6lQUT-82Iy-70" vertex="1">
          <mxGeometry x="0.7835898043603065" relative="1" as="geometry">
            <mxPoint x="-284" y="419" as="offset" />
          </mxGeometry>
        </mxCell>
      </root>
    </mxGraphModel>
  </diagram>
</mxfile>
